<svg xmlns="http://www.w3.org/2000/svg" width="880" height="560" viewBox="0 0 880 560" font-family="Inter, 'Helvetica Neue', Helvetica, Arial, sans-serif"><defs><marker id="arrow" viewBox="0 0 10 10" refX="9" refY="5" markerWidth="8" markerHeight="8" orient="auto-start-reverse"><path d="M0,0 L10,5 L0,10 z" fill="#9ca3af"/></marker></defs><rect width="100%" height="100%" fill="#ffffff"/><text x="440.0" y="30" text-anchor="middle" dominant-baseline="middle" style="font-family:Inter, 'Helvetica Neue', Helvetica, Arial, sans-serif;font-size:20px;font-weight:700;fill:#1f2937">Losses loom larger than gains (prospect theory)</text><path d="M120,300 L800,300" fill="none" stroke="#1f2937" stroke-width="2" marker-end="url(#arrow)"/><path d="M440,520 L440,80" fill="none" stroke="#1f2937" stroke-width="2" marker-end="url(#arrow)"/><text x="750" y="326.0" text-anchor="middle" dominant-baseline="middle" style="font-family:Inter, 'Helvetica Neue', Helvetica, Arial, sans-serif;font-size:13px;fill:#6b7280;font-weight:normal;">Gains</text><text x="150" y="274.0" text-anchor="middle" dominant-baseline="middle" style="font-family:Inter, 'Helvetica Neue', Helvetica, Arial, sans-serif;font-size:13px;fill:#6b7280;font-weight:normal;">Losses</text><text x="448" y="95.0" text-anchor="start" dominant-baseline="middle" style="font-family:Inter, 'Helvetica Neue', Helvetica, Arial, sans-serif;font-size:12px;fill:#6b7280;font-weight:normal;">Perceived value</text><polyline points="110.0,502.5 113.30000000000001,501.1814361357231 116.60000000000002,499.85820233864735 119.90000000000003,498.5302341608226 123.19999999999999,497.1974655900331 126.5,495.8598289951077 129.8,494.5172550687214 133.09999999999997,493.1696727675443 136.39999999999998,491.8170092495866 139.7,490.459189808574 143.0,489.0961378051803 146.3,487.72777459493 149.60000000000002,486.35401945256854 152.89999999999998,484.9747894926875 156.2,483.58999958637173 159.5,482.1995622736224 162.8,480.80338767128694 166.10000000000002,479.4013833762121 169.40000000000003,477.9934543633095 172.7,476.57950287820125 176.0,475.15942832408734 179.3,473.73312714244764 182.59999999999997,472.3004926871589 185.9,470.8614150915753 189.2,469.41578112808185 192.5,467.96347405958903 195.8,466.5043734823934 199.1,465.0383551597778 202.4,463.56529084567023 205.70000000000002,462.08504809762235 209.00000000000003,460.5974900782985 212.3,459.102475344597 215.6,457.59985762344024 218.89999999999998,456.08948557318354 222.2,454.5712025294896 225.5,453.0448462344068 228.79999999999998,451.51024854726467 232.1,449.96723513586187 235.4,448.41562514626787 238.70000000000002,446.85523084938836 242.0,445.2858572622483 245.3,443.7073017417333 248.60000000000002,442.11935354828165 251.9,440.52179337674863 255.2,438.91439285134845 258.5,437.29691398123396 261.79999999999995,435.6691085728685 265.1,434.0307175948965 268.4,432.381470490699 271.7,430.72108443323276 275.0,429.0492635160753 278.3,427.3656978738232 281.6,425.6700627241006 284.9,423.9620173224052 288.2,422.2412038198289 291.5,420.50724601231013 294.8,418.75974796846583 298.1,416.99829252117456 301.4,415.2224396058816 304.70000000000005,413.4317244260111 308.0,411.62565542281607 311.29999999999995,409.80371202338154 314.6,407.96534213619543 317.9,406.10995935856005 321.2,404.23693985395755 324.5,402.3456188500476 327.8,400.4352866989792 331.1,398.5051844307395 334.4,396.5544987168495 337.7,394.58235614520385 341.0,392.58781668639404 344.3,390.56986620635297 347.6,388.52740784814455 350.9,386.4592520652402 354.2,384.36410503703587 357.5,382.24055513106885 360.8,380.0870569904404 364.1,377.90191271243145 367.4,375.68324943548265 370.7,373.42899245266415 374.0,371.13683270031413 377.3,368.80418710092397 380.6,366.42814972505016 383.9,364.00543101002046 387.2,361.5322812275223 390.5,359.0043928589656 393.8,356.4167742409396 397.1,353.76358331961626 400.4,351.03790479894457 403.7,348.23144493902447 407.0,345.33410305600887 410.3,342.3333520926089 413.6,339.213311480868 416.9,335.95329958393063 420.2,332.5254519788018 423.5,328.89053141501137 426.8,324.9898714401604 430.1,320.72783023897205 433.4,315.92555310969925 436.7,310.1490414809523 440.0,300.0 443.3,295.4893148973546 446.6,292.9219763956892 449.9,290.7876310049013 453.2,288.8933904710398 456.5,287.1597638155505 459.8,285.54424356497697 463.1,284.0207557404753 466.4,282.5718615640587 469.7,281.1851768477294 473.0,279.85150975288497 476.3,278.56380224932246 479.6,277.31648675602463 482.9,276.10507408017054 486.2,274.92587811513795 489.5,273.7758253960153 492.8,272.6523194544345 496.1,271.5531417733242 499.4,270.4763778999777 502.7,269.4203612884782 506.0,268.38362991097154 509.3,267.3648922432604 512.6,266.3630002508966 515.9,265.3769276833638 519.2,264.4057524486932 522.5,263.4486421639694 525.8,262.50484220576186 529.1,261.57366574878216 532.4,260.6544854008246 535.7,259.7467261305098 539.0,258.84985925049153 542.3,257.9633972687983 545.6,257.086889459178 548.9,256.2199180307824 552.2,255.3620948004537 555.5,254.51305828886774 558.8,253.67247117601886 562.1,252.8400180628622 565.4,252.01540349502426 568.7,251.19835021183042 572.0,250.38859758985953 575.3,249.58590025510617 578.6,248.7900268418304 581.9,248.00075887947798 585.2,247.21788979179297 588.5,246.44122399452883 591.8,245.67057608007605 595.1,244.90577007893103 598.4,244.14663878928863 601.7,243.3930231671897 605.0,242.6447717706332 608.3,241.90174025189657 611.6,241.16379089302268 614.9,240.430792180046 618.2,239.70261841205843 621.5,238.9791493416738 624.8,238.26026984384515 628.1,237.54586961033397 631.4,236.83584286743036 634.7,236.13008811478522 638.0,235.4285078834452 641.3,234.73100851138295 644.6,234.03749993499207 647.9,233.3478954951725 651.2,232.66211175677125 654.5,231.98006834026364 657.8,231.3016877646713 661.1,230.6268953008073 664.4,229.95561883402655 667.7,229.2877887357347 671.0,228.62333774297844 674.3,227.96220084550117 677.6,227.30431517970212 680.9,226.64961992898765 684.2,225.99805623004738 687.5,225.3495670846271 690.8,224.70409727640805 694.1,224.06159329263318 697.4000000000001,223.42200325015162 700.7,222.78527682557882 704.0,222.1513651892945 707.3,221.52022094302168 710.5999999999999,220.8917980607513 713.9,220.26605183279463 717.2,219.64293881276137 720.5,219.0224167672789 723.8,218.4044446282792 727.1,217.78898244769448 730.4,217.175991354414 733.7,216.56543351336444 737.0,215.9572720865865 740.3,215.35147119618932 743.6,214.74799588907263 746.9000000000001,214.14681210331364 750.2,213.54788663612385 753.5,212.95118711328547 756.8,212.35668195998528 760.0999999999999,211.76434037296775 763.4,211.17413229393452 766.7,210.58602838412304 770.0,210.0" fill="none" stroke="#2563eb" stroke-width="3.5"/><line x1="605" y1="300" x2="605" y2="243" stroke="#059669" stroke-width="2" stroke-dasharray="6 5"/><line x1="275" y1="300" x2="275" y2="429" stroke="#dc2626" stroke-width="2" stroke-dasharray="6 5"/><text x="670" y="240.0" text-anchor="start" dominant-baseline="middle" style="font-family:Inter, 'Helvetica Neue', Helvetica, Arial, sans-serif;font-size:12px;fill:#059669;font-weight:normal;">A gain of X feels like this</text><text x="120" y="450.0" text-anchor="start" dominant-baseline="middle" style="font-family:Inter, 'Helvetica Neue', Helvetica, Arial, sans-serif;font-size:12px;fill:#dc2626;font-weight:normal;">A loss of the same X feels like this</text><text x="452" y="320.0" text-anchor="start" dominant-baseline="middle" style="font-family:Inter, 'Helvetica Neue', Helvetica, Arial, sans-serif;font-size:12px;fill:#6b7280;font-weight:normal;">Reference point (their status quo)</text><text x="440.0" y="542.0" text-anchor="middle" dominant-baseline="middle" style="font-family:Inter, 'Helvetica Neue', Helvetica, Arial, sans-serif;font-size:12px;fill:#6b7280;font-weight:normal;font-style:italic;">Roughly twice the weight on the loss side. Naming what a buyer is losing today usually beats describing what they could gain.</text></svg>